<svg xmlns="http://www.w3.org/2000/svg" width="350" height="218" viewBox="0 0 350 218">
  <g fill="none" fill-rule="evenodd">
    <rect width="350" height="218" fill="#D8D8D8"/>
    <path fill="#FEFEFE" d="M201.637487,92.0260423 C215.022737,85.0615808 225.567362,85.9460808 231.535487,89.0223115 C231.357737,88.9118885 231.192362,88.7914269 231.002237,88.6899269 L188.602112,66.2249654 C180.227612,61.78685 170.168987,61.7913115 161.797862,66.2361192 L119.498987,88.6932731 C113.492612,91.8832731 113.501612,100.424888 119.515862,103.601504 L149.855987,119.626235 C149.855987,119.626235 188.210612,99.0116962 201.637487,92.0260423"/>
    <path fill="#FEFEFE" d="M202.40847 95.3223135C193.571735 99.928979 183.712262 105.130341 178 108.150776 178.664949 108.46601 179.386154 108.853904 180.218747 109.298809 183.594123 111.099668 200.278608 120 200.278608 120 200.278608 120 224.447426 107.167066 230.473598 104.051615 234.062748 102.195982 235.588418 97.9928604 234.795205 94.4224432 234.178636 93.5851725 233.376422 92.8652763 232.366059 92.3387683 226.407395 89.2333772 215.835717 88.3212105 202.40847 95.3223135M215.828681 128.118328L200.590965 120 179.070855 131.352097 179.071975 131.352097C179.071975 131.352097 169.170036 136.896972 161.815558 140.804397 154.4622 144.711822 140.101644 141.416912 135 138.65448L161.285677 152.509997C170.112171 157.163334 180.691865 157.163334 189.519479 152.509997L215.805156 138.65448C220.054285 136.413408 220.067729 130.377187 215.828681 128.118328"/>
    <path fill="#FEFEFE" d="M160.498116,137.095798 C163.86608,135.256799 167.77283,133.062885 171,131.234059 C165.546736,128.296407 149.388713,120 149.388713,120 C149.388713,120 138.529856,125.945382 134.50892,128.146077 C132.352669,129.326111 129.678696,132.698928 131.740715,134.115195 C142.849009,141.744725 153.221186,141.068805 160.498116,137.095798"/>
  </g>
</svg>
