<svg width="16" height="16" viewBox="0 0 16 16" fill="none" xmlns="http://www.w3.org/2000/svg">
<path d="M11.4995 6.04839C13.2762 5.08042 14.6758 5.20344 15.4673 5.63085C15.4439 5.61559 15.4214 5.59853 15.3964 5.58506L9.76955 2.46297C8.65818 1.84568 7.32318 1.84568 6.21181 2.46297L0.597984 5.58326C0.229854 5.78756 0 6.18569 0 6.61902C0 7.05235 0.229854 7.45047 0.597984 7.65477L4.6306 9.88163C4.6306 9.88163 9.71765 7.01904 11.4995 6.04839Z" fill="url(#paint0_linear)"/>
<path d="M7.62085 8.18089C7.62085 8.18089 9.7176 7.01898 11.4995 6.04832C13.2814 5.07766 14.6844 5.20427 15.4785 5.63438C16.2224 6.03934 16.148 7.25064 15.398 7.6574C14.5979 8.0893 11.3914 9.86899 11.3914 9.86899L8.72978 8.38562C8.27738 8.13599 8.07324 8.01118 7.62085 8.18089Z" fill="#00AAA5"/>
<path d="M13.4242 11.0041L11.3871 9.86914L8.51014 11.4567C8.51014 11.4567 7.18583 12.2325 6.20405 12.7784C5.22228 13.3244 3.30199 12.8682 2.61951 12.4776L6.13312 14.4153C7.31304 15.066 8.72719 15.066 9.90711 14.4153L13.4207 12.4776C13.6831 12.3331 13.8475 12.0503 13.8482 11.7419C13.8489 11.4336 13.6859 11.1499 13.4242 11.0041V11.0041Z" fill="url(#paint1_linear)"/>
<path d="M6.20405 12.7783C5.22141 13.3251 3.30198 12.8681 2.6195 12.4775C1.93702 12.0869 2.07369 11.3102 2.6195 11.004L4.63062 9.88159L7.49895 11.4539C7.81563 11.6335 8.19863 11.6335 8.51532 11.4539C8.51532 11.4539 7.18755 12.2315 6.20405 12.7783Z" fill="#FFB115"/>
<defs>
<linearGradient id="paint0_linear" x1="5.73431" y1="1.57836" x2="2.22131" y2="9.42743" gradientUnits="userSpaceOnUse">
<stop stop-color="#00E6AA"/>
<stop offset="0.08" stop-color="#00E1A9"/>
<stop offset="0.61" stop-color="#00C8A5"/>
<stop offset="0.93" stop-color="#00BEA4"/>
</linearGradient>
<linearGradient id="paint1_linear" x1="9.74906" y1="15.3068" x2="11.5567" y2="10.0432" gradientUnits="userSpaceOnUse">
<stop stop-color="#E66E00"/>
<stop offset="0.78" stop-color="#FA8B00"/>
</linearGradient>
</defs>
</svg>
