<svg id="圖層_1" data-name="圖層 1" xmlns="http://www.w3.org/2000/svg" xmlns:xlink="http://www.w3.org/1999/xlink" viewBox="0 0 60 40"><defs><style>.cls-1{fill:none;}.cls-2{fill:#fdb031;}.cls-3{fill:#fff;}.cls-4{clip-path:url(#clip-path);}.cls-5{fill:#0baf8a;}.cls-6{fill:#221e1f;}.cls-7{fill:#343535;}</style><clipPath id="clip-path"><rect class="cls-1" x="9" y="-0.5" width="42" height="26" transform="translate(60 25) rotate(180)"/></clipPath></defs><title>2018hiring</title><rect class="cls-2" x="1" y="19.5" width="59" height="20" rx="9.92" ry="9.92"/><path class="cls-3" d="M20.28,28.05a20.12,20.12,0,0,1-1.73,4.83,3.88,3.88,0,0,0,1.38,1.81,7.9,7.9,0,0,0-1.34,1.48,4.6,4.6,0,0,1-1.16-1.62,8.24,8.24,0,0,1-2,1.8,6.3,6.3,0,0,0-1-1.21h0c-1.1.17-2.18.31-3.06.44l-.14-1.44L12.8,34l.1-.7H11.32L11.51,32h1.58l.06-.43c-.4,0-.8.06-1.17.07a4.74,4.74,0,0,0-.18-1.16,22.88,22.88,0,0,0,3.69-.55l.66,1.19c-.46.11-1,.2-1.5.28l-.08.6h1.62L16,33.29H14.38l-.07.54,1.36-.14-.06.64a6.63,6.63,0,0,0,1.29-1.49,16.12,16.12,0,0,1-.24-2.42c-.09.1-.16.2-.25.31a8.45,8.45,0,0,0-.48-.93h-4l.21-1.49h4.08l.25-.47H12.3c-.21.34-.43.66-.66,1l-1,7.41H9l.7-5c-.2.2-.39.4-.59.58a9.54,9.54,0,0,0-.68-1.73,13.65,13.65,0,0,0,2.71-3.33l1.22.48.34-2.39a16.8,16.8,0,0,1-3,3A9.94,9.94,0,0,0,9,26.4,10.56,10.56,0,0,0,11.36,24l1.51.63-.12.16h1.11l-.24,1.69h.31L14.28,24h1.27l-.35,2.47h.35l.24-1.69H17l-.38,2.69A20.07,20.07,0,0,0,17.8,24l1.58.27c-.21.75-.43,1.48-.7,2.2h2.16l-.22,1.56Zm-2.24,0c-.05.1-.08.19-.14.3,0,.78,0,1.54.11,2.26a21.73,21.73,0,0,0,.74-2.56Z"/><path class="cls-3" d="M33,28.44H30.5l-.76,5.44c-.16,1.11-.44,1.62-1.11,1.92a7.09,7.09,0,0,1-2.83.36,7.35,7.35,0,0,0-.33-2c.71.05,1.61.05,1.87.05s.37-.09.4-.33L28.42,29a21.41,21.41,0,0,1-6.25,6A6.48,6.48,0,0,0,21,33.28a17,17,0,0,0,5.68-4.84H22.06l.27-1.93h6.45L29.12,24h2l-.34,2.49h2.5Z"/><path class="cls-3" d="M45.46,26.21l-.94,6.69H42.64l.08-.6H40.34l-.56,3.94h-1.9l.56-3.94H36.07L36,33h-1.8l.95-6.76h4.17L39.6,24h1.9l-.31,2.2ZM38.7,30.46,39,28.05H36.66l-.33,2.41Zm4.28,0,.34-2.41H40.93l-.33,2.41Z"/><path class="cls-3" d="M47.56,33.67a1.71,1.71,0,0,1,1.61-1.53,1.23,1.23,0,0,1,1.2,1.53,1.71,1.71,0,0,1-1.63,1.54A1.23,1.23,0,0,1,47.56,33.67Zm1.29-7.09.23-2.19h2.38l-.39,2.19-1,4.69H48.54Z"/><g class="cls-4"><path class="cls-5" d="M40.67-7.43A76.07,76.07,0,0,1,41.75.26a50.25,50.25,0,0,1-.85,14.53c-.17.93-.43,3.42-1.44,3.88-2.17,1-2.16-2-2.38-3.35-.3-1.92-.66-4-2-5.35a4.52,4.52,0,0,0-6.28-.16,9.44,9.44,0,0,0-1.49,2.09l-.91,1.56c-1,1.65-.57,4.31-2.81,5-2.49.77-2.12-6.5-2.1-7.76.1-5.44.62-10.86,1-16.28.12-1.78.23-3.56.37-5.33a43.38,43.38,0,0,1,.66-4.43c.23-1.3.5-2.59.69-3.89a14,14,0,0,0,.25-2.41c0-.58-.33-1.27.39-1.62a1.31,1.31,0,0,1,.68-.08l1.6.08c.33,0,.72.09.82.41a.62.62,0,0,1-.42.71,5.13,5.13,0,0,1-.87.16.79.79,0,0,0-.66.54,12.29,12.29,0,0,0,.19,4.4c.4,2,1,3.94,1.23,6a4.8,4.8,0,0,0,5.46,4.13c2.43-.47,3-3.11,3.08-5.07a61.26,61.26,0,0,0,0-6.21c0-.93,0-1.88-.05-2.81,0-.54-.59-2.16-.2-2.54a1.26,1.26,0,0,1,.59-.26A9,9,0,0,1,37.8-24a1.06,1.06,0,0,1,.63.11.47.47,0,0,1,.22.57c-.16.35-.71.2-1,.46a.93.93,0,0,0-.15.82c.18,1.29.58,2.48.87,3.74.22.93.2,1.88.4,2.82C39.36-12.79,40.06-10.12,40.67-7.43Z"/><path class="cls-6" d="M38.89,13.46a1.12,1.12,0,1,1,.22,2.22,1.35,1.35,0,0,1-.82-.08.89.89,0,0,1-.46-.66A1.45,1.45,0,0,1,38.89,13.46Z"/><path class="cls-3" d="M39.06,14.33a.43.43,0,0,1,.17-.16.3.3,0,0,1,.39.19.37.37,0,0,1-.17.42.31.31,0,0,1-.31,0A.28.28,0,0,1,39,14.5.51.51,0,0,1,39.06,14.33Z"/><path class="cls-6" d="M24.59,15.25c-.05.08-.12.06-.21.11a.88.88,0,0,1-.27.1,1.12,1.12,0,0,1-.48,0,1.14,1.14,0,0,1-.65-.61,2.18,2.18,0,0,1-.31-.76c-.17-1.11,1.08-1.34,1.72-.69A1.7,1.7,0,0,1,24.59,15.25Z"/><path class="cls-3" d="M23.85,14.6a.48.48,0,0,1-.14-.41.19.19,0,0,1,0-.09.14.14,0,0,1,.08,0,.6.6,0,0,1,.26-.05.18.18,0,0,1,.15.2s0,0,0,0a.45.45,0,0,1-.05.45A.29.29,0,0,1,23.85,14.6Z"/><path class="cls-7" d="M32.63,7.7a3.39,3.39,0,0,0-.45,0c-1.11.12-2.28.66-3.41.54-.89-.1-.47-1.51.47-2.23a4.66,4.66,0,0,1,3.35-1.11A4.27,4.27,0,0,1,35.19,6c.54.53,1.26,2.44-.18,2.25C34.21,8.18,33.47,7.74,32.63,7.7Z"/><path class="cls-3" d="M32.18,7.72a3.39,3.39,0,0,1,.45,0,13.05,13.05,0,0,1,2.09.53h0a3.35,3.35,0,0,0-.27-1.32.38.38,0,0,0-.67-.07,1.18,1.18,0,0,0-.22.33,1.09,1.09,0,0,0-1.38-.43.36.36,0,0,1-.28,0c-.1,0-.13-.19-.23-.23s-.26.12-.39.21-.62-.08-.91,0c-.08,0-.15.06-.22,0s-.11-.25-.23-.29-.15.05-.2.11A3.4,3.4,0,0,0,29,8.28,25.81,25.81,0,0,0,32.18,7.72Z"/><path class="cls-5" d="M41.31,1.14c2.47,5,3.27,10.65,2.83,19.81,0,.47.21,1,.72,1.05s.85-.7.82-1.21-.17-1.11.23-1.52a8.88,8.88,0,0,1,.58,1.34,1,1,0,0,0,1.28.53c.55-.28.44-1,.38-1.53C47,8,44.58,3.26,41-2.58l.07,6.05"/><path class="cls-5" d="M22.6-1.58C18,3.5,15.67,8,14.47,19.61c-.06.55-.17,1.25.38,1.53a1,1,0,0,0,1.29-.53,7.93,7.93,0,0,1,.57-1.34c.4.41.27,1,.23,1.52S17.2,22,17.77,22s.74-.58.71-1.05C18.05,11.79,20,3.5,22.31,1.14Z"/></g></svg>