<?xml version="1.0" encoding="UTF-8"?>
<svg width="93px" height="110px" viewBox="0 0 93 110" version="1.1" xmlns="http://www.w3.org/2000/svg" xmlns:xlink="http://www.w3.org/1999/xlink">
    <!-- Generator: Sketch 63.1 (92452) - https://sketch.com -->
    <title>image_dailyvideo_O</title>
    <desc>Created with Sketch.</desc>
    <defs>
        <rect id="path-1" x="0" y="0" width="96" height="110"></rect>
        <polygon id="path-3" points="0.0246922257 0.36928966 66.4609229 0.36928966 66.4609229 96.0910802 0.0246922257 96.0910802"></polygon>
        <polygon id="path-5" points="0 0.377865675 9.10560187 0.377865675 9.10560187 9.06772087 0 9.06772087"></polygon>
    </defs>
    <g id="第一階段設計稿" stroke="none" stroke-width="1" fill="none" fill-rule="evenodd">
        <g id="每日影片_按鈕狀態" transform="translate(-983.000000, -1846.000000)">
            <g id="banner" transform="translate(0.000000, 1092.000000)">
                <g id="image_dailyvideo_O" transform="translate(983.000000, 754.000000)">
                    <mask id="mask-2" fill="white">
                        <use xlink:href="#path-1"></use>
                    </mask>
                    <use id="mask" fill="#D8D8D8" opacity="0" xlink:href="#path-1"></use>
                    <g id="Group-63" mask="url(#mask-2)">
                        <g transform="translate(0.000000, -10.000000)">
                            <path d="M46.4148245,61.3139964 C45.9160396,56.4766714 52.975679,51.2544267 57.3342149,52.2553292 C63.4079488,53.649483 66.0718379,59.9359503 65.3375465,65.6203209 C65.1559177,67.026139 64.6671307,69.8899864 63.4873767,70.8725594 C61.1545296,72.8182649 61.0467743,71.1408368 58.9922026,69.4123082 C56.890974,67.643788 47.5579195,63.0503011 47.313526,62.3598895" id="Fill-1" fill="#386FB0"></path>
                            <path d="M62.9966456,73.920424 C59.5979097,65.0883763 56.3508088,51.2273768 43.6812276,51.6295152 C36.8004398,52.0899748 34.7497561,57.353322 35.9234004,63.7614307 C36.5838183,65.9926322 42.0671197,76.1099676 42.686435,74.8780022 L62.9966456,73.920424 Z" id="Fill-3" fill="#568ACA"></path>
                            <g id="Group-7" stroke-width="1" fill="none" transform="translate(23.883910, 60.025820)">
                                <mask id="mask-4" fill="white">
                                    <use xlink:href="#path-3"></use>
                                </mask>
                                <g id="Clip-6"></g>
                                <path d="M36.094698,7.04597566 C33.5057932,2.63689476 30.2053701,-0.498562737 24.6587486,0.584544814 C21.2300189,1.25273886 20.5540487,2.86073699 19.1848896,5.90565781 C17.3197229,10.0514603 16.7848344,13.4868552 15.7139465,17.8359486 C11.5398167,34.7935248 8.36159029,50.6018961 6.4286599,67.2839741 C5.90821283,71.7797036 5.20058256,76.2998725 4.83399232,80.8100434 C4.5851553,83.8788481 6.49753443,89.1816316 4.1619102,91.7155478 C3.33263862,92.6142494 -1.88571802,93.8267744 0.77261672,95.8058063 C2.03457588,96.745055 6.83746357,95.1359459 7.80892772,94.2994537 C9.90682373,92.4903863 9.6018873,89.6565326 9.63299193,87.2098204 C9.66687375,84.4065159 10.7038798,82.2680728 11.3498563,79.5258667 C12.8451001,73.1755238 13.4066497,68.4820577 19.8236454,65.1233134 C28.2996563,60.687016 43.7297731,56.5412135 48.4482339,68.4281801 C51.0088113,74.8790575 54.441429,88.3301424 63.9100108,87.1592754 C70.7702474,86.3094526 61.7243553,83.6183469 60.790661,82.8207354 C59.0038113,81.2921651 58.0462331,78.7738012 57.2491771,76.8214304 C54.1909257,69.3346578 52.887864,60.4120733 51.4964874,52.5126089 C49.9745824,43.8777422 46.4975295,35.6472357 44.2068958,27.1623378 C42.3733892,20.363755 39.6695084,13.134151 36.094698,7.04597566" id="Fill-5" fill="#BEB197" mask="url(#mask-4)"></path>
                            </g>
                            <path d="M37.1334259,112.397125 C37.4133676,114.675539 34.6067304,118.489189 35.8825756,121.02977 C37.6177694,119.467874 39.6217961,113.825717 38.5586844,111.451212 C37.8227267,111.735041 37.7021962,112.32714 37.3933717,112.943678" id="Fill-8" fill="#988F7F"></path>
                            <path d="M45.4281413,104.632078 C45.0926556,106.600001 43.8773534,109.255558 45.0371117,110.847449 C46.3451723,108.952288 47.2044376,106.532792 47.113901,104.231605 C45.9274816,103.992211 45.8080621,104.585421 45.5214551,105.390808" id="Fill-10" fill="#988F7F"></path>
                            <path d="M43.8538028,121.591987 C44.8863653,120.906018 46.9770406,115.531583 44.6680775,115.707102 C43.3916769,115.804304 43.4694385,120.593861 43.8538028,121.591987" id="Fill-12" fill="#988F7F"></path>
                            <path d="M52.3876905,112.640908 C51.3184689,113.350205 50.7224821,114.772686 51.0762972,116.077969 C52.5709856,115.701937 53.7135252,114.018954 53.526342,112.500937 C52.6981813,112.024925 52.7442828,112.403735 52.2210586,112.853641" id="Fill-16" fill="#988F7F"></path>
                            <path d="M69.3915348,116.137901 C69.1282563,117.133805 68.2695465,119.551634 68.6694631,121.237394 C72.6797382,120.936345 70.9889796,111.893786 69.2249029,116.35119" id="Fill-18" fill="#988F7F"></path>
                            <path d="M48.7404508,75.6024623 C54.746421,76.559485 56.4266263,71.4044485 52.6740752,69.112704 C48.2227809,66.39216 42.4684249,74.6060034 48.7404508,75.6024623" id="Fill-26" fill="#343535"></path>
                            <path d="M49.8337229,70.7632488 C49.0561072,71.3009145 47.7247181,72.4934437 48.4551214,73.2855008 C50.3686114,75.1101205 54.4260989,70.346669 50.2497473,70.7121484" id="Fill-28" fill="#F1F2EF"></path>
                            <path d="M44.734397,79.6641156 C44.9893438,82.6651567 47.8787415,84.0570888 50.6120606,83.9232278 C52.0834206,83.851576 53.2531767,83.345015 54.4990281,82.6196106 C56.2320002,81.6103766 57.0112822,80.0645877 58.4731997,78.7631923 C59.9112333,80.9871731 61.1248692,83.745487 60.2539396,86.4232622 C58.6142814,91.4694325 52.5860936,96.0651411 47.4504975,92.750832 C43.5868584,90.2569075 41.1818042,84.0659758 44.2744929,80.1062457" id="Fill-30" fill="#343535"></path>
                            <path d="M48.0350423,83.5503055 C48.1689033,84.1723981 47.6001329,85.464351 47.5751381,86.0553389 C47.5501434,86.6457713 47.774541,86.3391686 48.4455123,86.8857213 C49.1153726,87.4328295 50.3601132,87.197323 50.5822891,86.6229983 C50.8061313,86.0497845 50.7022641,84.6695166 50.7022641,84.6695166 C50.7022641,84.6695166 51.0844066,84.057422 50.610061,83.919673 C50.13516,83.7819239 48.8459843,82.9021073 48.4360698,83.5008714" id="Fill-32" fill="#F1F2EF"></path>
                            <path d="M51.609075,83.4458828 C51.609075,83.4458828 51.6651744,86.3819375 52.2433872,86.4941363 C52.8221555,86.6080014 54.5840104,86.69465 54.841179,86.1608724 C55.100014,85.629872 54.4329308,84.1168541 54.2429704,83.3931161 C54.0518991,82.669378 52.0445398,82.7899085 51.609075,83.4458828" id="Fill-34" fill="#F1F2EF"></path>
                            <path d="M70.1680396,94.6230529 C73.3151613,90.6066679 75.2608668,82.0806674 77.8814317,76.726228 C79.9343371,72.5293251 83.6291224,68.1469054 81.447355,63.6195158 C83.9990453,62.9168845 83.6341214,65.9440312 85.5259492,66.4739208 C85.4959555,65.4008111 86.1813682,61.233902 88.0515339,62.0331798 C89.3657044,62.594174 88.6664057,66.4911394 88.8808054,67.6031298 C90.0888869,66.3161759 93.3609826,65.2030746 92.5022727,68.4590625 C91.8690714,70.8624504 87.8065849,70.7630267 86.2769038,72.2060592 C83.7257689,74.610558 81.6006564,81.1486395 80.0754188,84.4535061 C77.919757,89.1225328 76.26899,93.8720983 73.6889723,98.342833 C72.9980052,99.5409166 71.7382678,102.996863 69.5209523,102.043728 C67.5419204,101.192794 69.2437878,97.1614126 69.5026227,95.4756529" id="Fill-36" fill="#BEB197"></path>
                            <path d="M37.2294615,99.4457142 C33.5918864,94.0546158 30.5697386,88.4974409 28.2685516,82.3131745 C27.3804035,79.9275607 23.8616925,66.0526753 19.92418,68.0155994 C20.4085235,68.7315613 20.8745374,70.1329358 21.3200001,70.8494531 C20.0569301,69.4614091 18.4655951,68.258882 16.572101,68.8965269 C16.60876,69.0076148 16.7115164,69.7991165 16.7065174,69.9140925 C17.9929159,70.2729066 19.2021083,71.0538549 19.9647271,72.141406 C18.2084265,71.3954504 16.452126,70.4739758 14.5269486,71.0760725 C14.5147521,73.985466 19.3459672,75.4829317 21.3316644,77.5158412 C23.9566727,80.2019479 24.986458,83.5640249 26.3511736,86.9066614 C27.6525689,90.0943302 34.6627743,104.34136 38.8085767,103.424329 C39.4856578,101.44252 37.5266217,98.6125546 35.9963852,98.8263989" id="Fill-38" fill="#BEB197"></path>
                            <g id="Group-42" stroke-width="1" fill="none" transform="translate(0.000000, 18.367838)">
                                <mask id="mask-6" fill="white">
                                    <use xlink:href="#path-5"></use>
                                </mask>
                                <g id="Clip-41"></g>
                                <path d="M8.84398973,4.5736577 C5.81406579,4.4703459 3.31736403,1.82200908 0.89398031,0.377865675 C0.786224994,1.32044696 -0.102478638,3.49777086 0.00972019597,4.27260934 C0.269110568,6.06056996 0.96563204,5.71508642 3.04353222,6.23220085 C5.37971189,6.81207997 7.03936592,8.36786676 9.10560187,9.06772087 C8.89953371,7.84130986 9.19002871,6.85207163 9.04117085,5.64343469 C9.07005372,5.87783028 8.81399599,3.79770834 8.81399599,3.79770834" id="Fill-40" fill="#F7E067" mask="url(#mask-6)"></path>
                            </g>
                            <path d="M19.894464,57.1395333 C16.86454,57.0362215 14.4044973,54.0846145 11.9811136,52.6399157 C11.8733582,53.5830524 11.0029841,55.6087413 11.115183,56.3830243 C11.3745733,58.1715404 12.0805373,57.7499616 14.1584375,58.267076 C16.4940617,58.8469551 18.012634,60.3827461 20.0794254,61.0826002 C19.8728018,59.8561892 20.0216597,58.8469551 19.8728018,57.6383182 C19.9016847,57.8721583 19.7905967,56.971235 19.7905967,56.971235" id="Fill-43" fill="#F7E067"></path>
                            <path d="M77.8684899,51.1005722 C74.838566,50.9972604 72.3785232,48.0456535 69.9551395,46.6009546 C69.8473842,47.5440914 68.9770101,49.5697802 69.0892089,50.3440633 C69.3485993,52.1325793 70.0545632,51.7110005 72.1324634,52.228115 C74.4680877,52.8079941 75.98666,54.343785 78.0534514,55.0436392 C77.8468278,53.8172281 77.9956856,52.8079941 77.8468278,51.5993571 C77.8757106,51.8331973 77.7646227,50.932274 77.7646227,50.932274" id="Fill-43" fill="#F7E067" transform="translate(73.566350, 50.822297) scale(-1, 1) translate(-73.566350, -50.822297) "></path>
                            <path d="M32.3625871,23.252264 C32.1359677,21.2987823 28.3417586,16.19318 34.0166867,16.4447942 C34.2377518,19.1781133 37.029392,24.9685729 32.9935667,24.2015106" id="Fill-45" fill="#F7E067"></path>
                            <path d="M23.0272553,43.4040493 L27.1886101,46.5944953 L28.946577,44.5265931 C28.946577,44.5265931 24.5008371,39.7120412 24.0998095,39.5887335 C23.6993375,39.4670922 23.0272553,43.4040493 23.0272553,43.4040493" id="Fill-49" fill="#F7E067"></path>
                            <path d="M77.3453212,34.8096325 C77.3453212,34.8096325 80.3252556,29.6951431 80.6290811,27.6988926 L78.4128764,27.4172847 C78.4128764,27.4172847 76.8220969,32.7333987 75.4018375,34.3130694 L77.3453212,34.8096325 Z" id="Fill-53" fill="#F7E067"></path>
                            <polygon id="Fill-55" fill="#F7E067" points="51.0053675 22.8544025 53.0277237 25.842113 54.4618692 24.0474871 52.2762137 19.7367191"></polygon>
                            <polygon id="Fill-57" fill="#F7E067" points="58.6965976 42.3124227 57.770124 45.6628354 56.2548843 44.2309117 57.0191695 39.5574414"></polygon>
                            <path d="M63.6743932,14.9692129 L63.7888138,10.9078373 C63.7888138,10.9078373 64.8519256,11.1389002 66.0622288,11.579364 L65.262951,16.1223058 L63.6743932,14.9692129 Z" id="Fill-59" fill="#F7E067"></path>
                            <path d="M40.0109927,44.1158917 L41.9555874,39.3318889 L44.1917879,39.8528914 C44.1917879,39.8528914 42.3649465,42.5439971 43.1814429,43.2594035 C43.9968285,43.9753654 42.4315992,44.0514606 40.0109927,44.1158917" id="Fill-61" fill="#F7E067"></path>
                        </g>
                    </g>
                </g>
            </g>
        </g>
    </g>
</svg>