<?xml version="1.0" encoding="UTF-8"?>
<svg width="94px" height="94px" viewBox="0 0 94 94" version="1.1" xmlns="http://www.w3.org/2000/svg" xmlns:xlink="http://www.w3.org/1999/xlink">
    <!-- Generator: Sketch 63.1 (92452) - https://sketch.com -->
    <title>星球 play</title>
    <desc>Created with Sketch.</desc>
    <defs>
        <ellipse id="path-1" cx="46.8" cy="46.15" rx="46.8" ry="46.15"></ellipse>
    </defs>
    <g id="第一階段設計稿" stroke="none" stroke-width="1" fill="none" fill-rule="evenodd">
        <g id="Artboard" transform="translate(-752.000000, -593.000000)">
            <g id="星球-play" transform="translate(799.000000, 640.500000) rotate(10.000000) translate(-799.000000, -640.500000) translate(752.000000, 594.000000)">
                <mask id="mask-2" fill="white">
                    <use xlink:href="#path-1"></use>
                </mask>
                <use id="Oval" fill="#2EE1B3" xlink:href="#path-1"></use>
                <path d="M87.8230513,4.6081967 C56.1418785,1.09142747 43.9841948,3.68283343 51.35,12.3824146 C62.3987078,25.4317863 42.2776559,16.25 44.5388279,31.2 C46.8,46.15 91.2853783,43.44808 104.525271,37.32404 C113.351865,33.2413467 107.784459,22.3360656 87.8230513,4.6081967 Z" id="Path-39" fill="#FFFFFF" opacity="0.200000003" mask="url(#mask-2)"></path>
                <path d="M99.7030827,53.95 C75.082136,55.432208 67.8477751,59.5488747 78,66.3 C93.2283373,76.426688 85.0285855,77.4899012 93.6,84.5811619 C99.3142763,89.3086691 101.348637,79.0982818 99.7030827,53.95 Z" id="Path-41" fill="#FFFFFF" opacity="0.200000003" mask="url(#mask-2)"></path>
                <path d="M-13.8553512,39.65 C19.1561849,37.4316518 34.5611473,39.5983184 32.359536,46.15 C29.057119,55.9775223 40.3012922,55.9 51.35,61.1 C62.3987078,66.3 33.0310605,81.6452685 -4.28446974,76.426688 C-29.1614899,72.9476343 -32.3517837,60.6887383 -13.8553512,39.65 Z" id="Path-40" fill="#FFFFFF" opacity="0.200000003" mask="url(#mask-2)"></path>
                <path d="M52.4621501,35.6374654 L65.1057289,56.5268565 C65.4774958,57.1410801 65.2809459,57.9403832 64.6667223,58.3121501 C64.4636939,58.4350357 64.2309002,58.5 63.9935788,58.5 L38.7064212,58.5 C37.988451,58.5 37.4064212,57.9179702 37.4064212,57.2 C37.4064212,56.9626786 37.4713854,56.729885 37.5942711,56.5268565 L50.2378499,35.6374654 C50.6096168,35.0232418 51.4089199,34.8266919 52.0231435,35.1984588 C52.2027874,35.3071906 52.3534183,35.4578215 52.4621501,35.6374654 Z" id="Triangle" fill="#FFFFFF" mask="url(#mask-2)" transform="translate(51.350000, 46.150000) rotate(-270.000000) translate(-51.350000, -46.150000) "></path>
            </g>
        </g>
    </g>
</svg>